<svg version="1.1" xmlns="http://www.w3.org/2000/svg" xmlns:xlink="http://www.w3.org/1999/xlink" width="50.000000pt" height="50.000000pt" viewBox="0,0,256,256"><g fill="#475be8" fill-rule="nonzero" stroke="none" stroke-width="1" stroke-linecap="butt" stroke-linejoin="miter" stroke-miterlimit="10" stroke-dasharray="" stroke-dashoffset="0" font-family="none" font-weight="none" font-size="none" text-anchor="none" style="mix-blend-mode: normal"><g transform="translate(-0.08491,1.02589) scale(5.12,5.12)"><g transform="translate(0,50) scale(0.1,-0.1)"><path d="M195,428c-107,-60 -101,-56 -88,-69c8,-8 35,2 97,36l86,47l86,-47c62,-34 89,-44 97,-36c6,6 9,12 6,15c-6,5 -189,106 -192,105c-1,0 -42,-23 -92,-51z"></path><path d="M203,367c-40,-23 -73,-48 -73,-56c0,-9 6,-11 18,-6c41,18 61,13 142,-33c71,-39 86,-52 88,-75c2,-18 -2,-29 -12,-33c-12,-4 -16,-20 -16,-56v-49l48,3l47,3l3,130l2,130l-76,43c-42,23 -82,42 -88,41c-6,-1 -44,-20 -83,-42z"></path><path d="M105,253c-95,-54 -91,-51 -78,-64c8,-8 33,1 87,31l76,42l76,-42c54,-30 79,-39 87,-31c6,6 9,12 6,15c-5,5 -171,96 -173,95c0,0 -37,-21 -81,-46z"></path><path d="M112,192l-63,-37l3,-65l3,-65h135h135l3,65l2,65l-66,38c-36,20 -71,37 -78,36c-6,0 -39,-17 -74,-37z"></path></g></g></g></svg>